<!--?xml version="1.0" encoding="us-ascii" standalone="no"?--><svg xmlns="http://www.w3.org/2000/svg" xmlns:xlink="http://www.w3.org/1999/xlink" contentstyletype="text/css" height="1214px" preserveAspectRatio="none" style="width:1015px;height:1214px;background:#FFFFFF;" version="1.1" viewBox="0 0 1015 1214" width="1015px" zoomAndPan="magnify"><defs></defs><g><line style="stroke:#181818;stroke-width:0.5;stroke-dasharray:5.0,5.0;" x1="35" x2="35" y1="81.2969" y2="1133.9453"></line><line style="stroke:#181818;stroke-width:0.5;stroke-dasharray:5.0,5.0;" x1="100" x2="100" y1="81.2969" y2="1133.9453"></line><line style="stroke:#181818;stroke-width:0.5;stroke-dasharray:5.0,5.0;" x1="167" x2="167" y1="81.2969" y2="1133.9453"></line><line style="stroke:#181818;stroke-width:0.5;stroke-dasharray:5.0,5.0;" x1="304.5" x2="304.5" y1="81.2969" y2="1133.9453"></line><line style="stroke:#181818;stroke-width:0.5;stroke-dasharray:5.0,5.0;" x1="384.5" x2="384.5" y1="81.2969" y2="1133.9453"></line><line style="stroke:#181818;stroke-width:0.5;stroke-dasharray:5.0,5.0;" x1="458.5" x2="458.5" y1="81.2969" y2="1133.9453"></line><line style="stroke:#181818;stroke-width:0.5;stroke-dasharray:5.0,5.0;" x1="528.5" x2="528.5" y1="81.2969" y2="1133.9453"></line><line style="stroke:#181818;stroke-width:0.5;stroke-dasharray:5.0,5.0;" x1="629.5" x2="629.5" y1="81.2969" y2="1133.9453"></line><line style="stroke:#181818;stroke-width:0.5;stroke-dasharray:5.0,5.0;" x1="746.5" x2="746.5" y1="81.2969" y2="1133.9453"></line><line style="stroke:#181818;stroke-width:0.5;stroke-dasharray:5.0,5.0;" x1="868.5" x2="868.5" y1="81.2969" y2="1133.9453"></line><line style="stroke:#181818;stroke-width:0.5;stroke-dasharray:5.0,5.0;" x1="976.5" x2="976.5" y1="81.2969" y2="1133.9453"></line><text fill="#000000" font-family="sans-serif" font-size="14" lengthAdjust="spacing" textLength="55" x="5" y="77.9951">Student</text><ellipse cx="35.5" cy="13.5" fill="#E2E2F0" rx="8" ry="8" style="stroke:#181818;stroke-width:0.5;"></ellipse><path d="M35.5,21.5 L35.5,48.5 M22.5,29.5 L48.5,29.5 M35.5,48.5 L22.5,63.5 M35.5,48.5 L48.5,63.5 " fill="none" style="stroke:#181818;stroke-width:0.5;"></path><text fill="#000000" font-family="sans-serif" font-size="14" lengthAdjust="spacing" textLength="55" x="5" y="1145.9404">Student</text><ellipse cx="35.5" cy="1157.7422" fill="#E2E2F0" rx="8" ry="8" style="stroke:#181818;stroke-width:0.5;"></ellipse><path d="M35.5,1165.7422 L35.5,1192.7422 M22.5,1173.7422 L48.5,1173.7422 M35.5,1192.7422 L22.5,1207.7422 M35.5,1192.7422 L48.5,1207.7422 " fill="none" style="stroke:#181818;stroke-width:0.5;"></path><text fill="#000000" font-family="sans-serif" font-size="14" lengthAdjust="spacing" textLength="43" x="76" y="77.9951">Admin</text><ellipse cx="100.5" cy="13.5" fill="#E2E2F0" rx="8" ry="8" style="stroke:#181818;stroke-width:0.5;"></ellipse><path d="M100.5,21.5 L100.5,48.5 M87.5,29.5 L113.5,29.5 M100.5,48.5 L87.5,63.5 M100.5,48.5 L113.5,63.5 " fill="none" style="stroke:#181818;stroke-width:0.5;"></path><text fill="#000000" font-family="sans-serif" font-size="14" lengthAdjust="spacing" textLength="43" x="76" y="1145.9404">Admin</text><ellipse cx="100.5" cy="1157.7422" fill="#E2E2F0" rx="8" ry="8" style="stroke:#181818;stroke-width:0.5;"></ellipse><path d="M100.5,1165.7422 L100.5,1192.7422 M87.5,1173.7422 L113.5,1173.7422 M100.5,1192.7422 L87.5,1207.7422 M100.5,1192.7422 L113.5,1207.7422 " fill="none" style="stroke:#181818;stroke-width:0.5;"></path><text fill="#000000" font-family="sans-serif" font-size="14" lengthAdjust="spacing" textLength="57" x="136" y="77.9951">Teacher</text><ellipse cx="167.5" cy="13.5" fill="#E2E2F0" rx="8" ry="8" style="stroke:#181818;stroke-width:0.5;"></ellipse><path d="M167.5,21.5 L167.5,48.5 M154.5,29.5 L180.5,29.5 M167.5,48.5 L154.5,63.5 M167.5,48.5 L180.5,63.5 " fill="none" style="stroke:#181818;stroke-width:0.5;"></path><text fill="#000000" font-family="sans-serif" font-size="14" lengthAdjust="spacing" textLength="57" x="136" y="1145.9404">Teacher</text><ellipse cx="167.5" cy="1157.7422" fill="#E2E2F0" rx="8" ry="8" style="stroke:#181818;stroke-width:0.5;"></ellipse><path d="M167.5,1165.7422 L167.5,1192.7422 M154.5,1173.7422 L180.5,1173.7422 M167.5,1192.7422 L154.5,1207.7422 M167.5,1192.7422 L180.5,1207.7422 " fill="none" style="stroke:#181818;stroke-width:0.5;"></path><text fill="#000000" font-family="sans-serif" font-size="14" lengthAdjust="spacing" textLength="64" x="269.5" y="77.9951">Shaparak</text><ellipse cx="304.5" cy="13.5" fill="#E2E2F0" rx="8" ry="8" style="stroke:#181818;stroke-width:0.5;"></ellipse><path d="M304.5,21.5 L304.5,48.5 M291.5,29.5 L317.5,29.5 M304.5,48.5 L291.5,63.5 M304.5,48.5 L317.5,63.5 " fill="none" style="stroke:#181818;stroke-width:0.5;"></path><text fill="#000000" font-family="sans-serif" font-size="14" lengthAdjust="spacing" textLength="64" x="269.5" y="1145.9404">Shaparak</text><ellipse cx="304.5" cy="1157.7422" fill="#E2E2F0" rx="8" ry="8" style="stroke:#181818;stroke-width:0.5;"></ellipse><path d="M304.5,1165.7422 L304.5,1192.7422 M291.5,1173.7422 L317.5,1173.7422 M304.5,1192.7422 L291.5,1207.7422 M304.5,1192.7422 L317.5,1207.7422 " fill="none" style="stroke:#181818;stroke-width:0.5;"></path><rect fill="#E2E2F0" height="30.2969" rx="2.5" ry="2.5" style="stroke:#181818;stroke-width:0.5;" width="71" x="349.5" y="50"></rect><text fill="#000000" font-family="sans-serif" font-size="14" lengthAdjust="spacing" textLength="57" x="356.5" y="69.9951">Account</text><rect fill="#E2E2F0" height="30.2969" rx="2.5" ry="2.5" style="stroke:#181818;stroke-width:0.5;" width="71" x="349.5" y="1132.9453"></rect><text fill="#000000" font-family="sans-serif" font-size="14" lengthAdjust="spacing" textLength="57" x="356.5" y="1152.9404">Account</text><rect fill="#E2E2F0" height="30.2969" rx="2.5" ry="2.5" style="stroke:#181818;stroke-width:0.5;" width="56" x="430.5" y="50"></rect><text fill="#000000" font-family="sans-serif" font-size="14" lengthAdjust="spacing" textLength="42" x="437.5" y="69.9951">Takes</text><rect fill="#E2E2F0" height="30.2969" rx="2.5" ry="2.5" style="stroke:#181818;stroke-width:0.5;" width="56" x="430.5" y="1132.9453"></rect><text fill="#000000" font-family="sans-serif" font-size="14" lengthAdjust="spacing" textLength="42" x="437.5" y="1152.9404">Takes</text><rect fill="#E2E2F0" height="30.2969" rx="2.5" ry="2.5" style="stroke:#181818;stroke-width:0.5;" width="64" x="496.5" y="50"></rect><text fill="#000000" font-family="sans-serif" font-size="14" lengthAdjust="spacing" textLength="50" x="503.5" y="69.9951">Course</text><rect fill="#E2E2F0" height="30.2969" rx="2.5" ry="2.5" style="stroke:#181818;stroke-width:0.5;" width="64" x="496.5" y="1132.9453"></rect><text fill="#000000" font-family="sans-serif" font-size="14" lengthAdjust="spacing" textLength="50" x="503.5" y="1152.9404">Course</text><rect fill="#E2E2F0" height="30.2969" rx="2.5" ry="2.5" style="stroke:#181818;stroke-width:0.5;" width="119" x="570.5" y="50"></rect><text fill="#000000" font-family="sans-serif" font-size="14" lengthAdjust="spacing" textLength="105" x="577.5" y="69.9951">CourseSession</text><rect fill="#E2E2F0" height="30.2969" rx="2.5" ry="2.5" style="stroke:#181818;stroke-width:0.5;" width="119" x="570.5" y="1132.9453"></rect><text fill="#000000" font-family="sans-serif" font-size="14" lengthAdjust="spacing" textLength="105" x="577.5" y="1152.9404">CourseSession</text><rect fill="#E2E2F0" height="30.2969" rx="2.5" ry="2.5" style="stroke:#181818;stroke-width:0.5;" width="95" x="699.5" y="50"></rect><text fill="#000000" font-family="sans-serif" font-size="14" lengthAdjust="spacing" textLength="81" x="706.5" y="69.9951">LunchOrder</text><rect fill="#E2E2F0" height="30.2969" rx="2.5" ry="2.5" style="stroke:#181818;stroke-width:0.5;" width="95" x="699.5" y="1132.9453"></rect><text fill="#000000" font-family="sans-serif" font-size="14" lengthAdjust="spacing" textLength="81" x="706.5" y="1152.9404">LunchOrder</text><rect fill="#E2E2F0" height="30.2969" rx="2.5" ry="2.5" style="stroke:#181818;stroke-width:0.5;" width="129" x="804.5" y="50"></rect><text fill="#000000" font-family="sans-serif" font-size="14" lengthAdjust="spacing" textLength="115" x="811.5" y="69.9951">StudentPayment</text><rect fill="#E2E2F0" height="30.2969" rx="2.5" ry="2.5" style="stroke:#181818;stroke-width:0.5;" width="129" x="804.5" y="1132.9453"></rect><text fill="#000000" font-family="sans-serif" font-size="14" lengthAdjust="spacing" textLength="115" x="811.5" y="1152.9404">StudentPayment</text><rect fill="#E2E2F0" height="30.2969" rx="2.5" ry="2.5" style="stroke:#181818;stroke-width:0.5;" width="66" x="943.5" y="50"></rect><text fill="#000000" font-family="sans-serif" font-size="14" lengthAdjust="spacing" textLength="52" x="950.5" y="69.9951">Subject</text><rect fill="#E2E2F0" height="30.2969" rx="2.5" ry="2.5" style="stroke:#181818;stroke-width:0.5;" width="66" x="943.5" y="1132.9453"></rect><text fill="#000000" font-family="sans-serif" font-size="14" lengthAdjust="spacing" textLength="52" x="950.5" y="1152.9404">Subject</text><polygon fill="#181818" points="373,108.4297,383,112.4297,373,116.4297,377,112.4297" style="stroke:#181818;stroke-width:1.0;"></polygon><line style="stroke:#181818;stroke-width:1.0;" x1="35.5" x2="379" y1="112.4297" y2="112.4297"></line><text fill="#000000" font-family="sans-serif" font-size="13" lengthAdjust="spacing" textLength="44" x="42.5" y="107.3638">Signup</text><polygon fill="#181818" points="46.5,137.5625,36.5,141.5625,46.5,145.5625,42.5,141.5625" style="stroke:#181818;stroke-width:1.0;"></polygon><line style="stroke:#181818;stroke-width:1.0;" x1="40.5" x2="384" y1="141.5625" y2="141.5625"></line><text fill="#000000" font-family="sans-serif" font-size="13" lengthAdjust="spacing" textLength="67" x="52.5" y="136.4966">GetDetails</text><polygon fill="#181818" points="373,166.6953,383,170.6953,373,174.6953,377,170.6953" style="stroke:#181818;stroke-width:1.0;"></polygon><line style="stroke:#181818;stroke-width:1.0;" x1="35.5" x2="379" y1="170.6953" y2="170.6953"></line><text fill="#000000" font-family="sans-serif" font-size="13" lengthAdjust="spacing" textLength="88" x="42.5" y="165.6294">ChangeName</text><polygon fill="#181818" points="373,195.8281,383,199.8281,373,203.8281,377,199.8281" style="stroke:#181818;stroke-width:1.0;"></polygon><line style="stroke:#181818;stroke-width:1.0;" x1="35.5" x2="379" y1="199.8281" y2="199.8281"></line><text fill="#000000" font-family="sans-serif" font-size="13" lengthAdjust="spacing" textLength="84" x="42.5" y="194.7622">ChangeEmail</text><polygon fill="#181818" points="373,224.9609,383,228.9609,373,232.9609,377,228.9609" style="stroke:#181818;stroke-width:1.0;"></polygon><line style="stroke:#181818;stroke-width:1.0;" x1="35.5" x2="379" y1="228.9609" y2="228.9609"></line><text fill="#000000" font-family="sans-serif" font-size="13" lengthAdjust="spacing" textLength="90" x="42.5" y="223.895">ChangeMobile</text><polygon fill="#181818" points="373,254.0938,383,258.0938,373,262.0938,377,258.0938" style="stroke:#181818;stroke-width:1.0;"></polygon><line style="stroke:#181818;stroke-width:1.0;" x1="35.5" x2="379" y1="258.0938" y2="258.0938"></line><text fill="#000000" font-family="sans-serif" font-size="13" lengthAdjust="spacing" textLength="109" x="42.5" y="253.0278">ChangePassword</text><polygon fill="#181818" points="373,283.2266,383,287.2266,373,291.2266,377,287.2266" style="stroke:#181818;stroke-width:1.0;"></polygon><line style="stroke:#181818;stroke-width:1.0;" x1="35.5" x2="379" y1="287.2266" y2="287.2266"></line><text fill="#000000" font-family="sans-serif" font-size="13" lengthAdjust="spacing" textLength="116" x="42.5" y="282.1606">ChangeUsername</text><polygon fill="#181818" points="373,312.3594,383,316.3594,373,320.3594,377,316.3594" style="stroke:#181818;stroke-width:1.0;"></polygon><line style="stroke:#181818;stroke-width:1.0;" x1="35.5" x2="379" y1="316.3594" y2="316.3594"></line><text fill="#000000" font-family="sans-serif" font-size="13" lengthAdjust="spacing" textLength="34" x="42.5" y="311.2935">Login</text><polygon fill="#181818" points="46.5,341.4922,36.5,345.4922,46.5,349.4922,42.5,345.4922" style="stroke:#181818;stroke-width:1.0;"></polygon><line style="stroke:#181818;stroke-width:1.0;stroke-dasharray:2.0,2.0;" x1="40.5" x2="384" y1="345.4922" y2="345.4922"></line><text fill="#000000" font-family="sans-serif" font-size="13" lengthAdjust="spacing" textLength="102" x="52.5" y="340.4263">AccountSession</text><polygon fill="#181818" points="446.5,370.625,456.5,374.625,446.5,378.625,450.5,374.625" style="stroke:#181818;stroke-width:1.0;"></polygon><line style="stroke:#181818;stroke-width:1.0;" x1="35.5" x2="452.5" y1="374.625" y2="374.625"></line><text fill="#000000" font-family="sans-serif" font-size="13" lengthAdjust="spacing" textLength="95" x="42.5" y="369.5591">StudentSignup</text><polygon fill="#181818" points="516.5,399.7578,526.5,403.7578,516.5,407.7578,520.5,403.7578" style="stroke:#181818;stroke-width:1.0;"></polygon><line style="stroke:#181818;stroke-width:1.0;" x1="458.5" x2="522.5" y1="403.7578" y2="403.7578"></line><text fill="#000000" font-family="sans-serif" font-size="13" lengthAdjust="spacing" textLength="43" x="465.5" y="398.6919">Create</text><polygon fill="#181818" points="111.5,428.8906,101.5,432.8906,111.5,436.8906,107.5,432.8906" style="stroke:#181818;stroke-width:1.0;"></polygon><line style="stroke:#181818;stroke-width:1.0;" x1="105.5" x2="457.5" y1="432.8906" y2="432.8906"></line><text fill="#000000" font-family="sans-serif" font-size="13" lengthAdjust="spacing" textLength="108" x="117.5" y="427.8247">RequestApproval</text><polygon fill="#181818" points="446.5,458.0234,456.5,462.0234,446.5,466.0234,450.5,462.0234" style="stroke:#181818;stroke-width:1.0;"></polygon><line style="stroke:#181818;stroke-width:1.0;" x1="100.5" x2="452.5" y1="462.0234" y2="462.0234"></line><text fill="#000000" font-family="sans-serif" font-size="13" lengthAdjust="spacing" textLength="53" x="107.5" y="456.9575">Approve</text><polygon fill="#181818" points="46.5,487.1563,36.5,491.1563,46.5,495.1563,42.5,491.1563" style="stroke:#181818;stroke-width:1.0;"></polygon><line style="stroke:#181818;stroke-width:1.0;stroke-dasharray:2.0,2.0;" x1="40.5" x2="457.5" y1="491.1563" y2="491.1563"></line><text fill="#000000" font-family="sans-serif" font-size="13" lengthAdjust="spacing" textLength="131" x="52.5" y="486.0903">Status = APPROVED</text><polygon fill="#181818" points="618,516.2891,628,520.2891,618,524.2891,622,520.2891" style="stroke:#181818;stroke-width:1.0;"></polygon><line style="stroke:#181818;stroke-width:1.0;" x1="35.5" x2="624" y1="520.2891" y2="520.2891"></line><text fill="#000000" font-family="sans-serif" font-size="13" lengthAdjust="spacing" textLength="43" x="42.5" y="515.2231">Create</text><polygon fill="#181818" points="618,545.4219,628,549.4219,618,553.4219,622,549.4219" style="stroke:#181818;stroke-width:1.0;"></polygon><line style="stroke:#181818;stroke-width:1.0;" x1="167.5" x2="624" y1="549.4219" y2="549.4219"></line><text fill="#000000" font-family="sans-serif" font-size="13" lengthAdjust="spacing" textLength="105" x="174.5" y="544.356">MarkAttendance</text><polygon fill="#181818" points="735,574.5547,745,578.5547,735,582.5547,739,578.5547" style="stroke:#181818;stroke-width:1.0;"></polygon><line style="stroke:#181818;stroke-width:1.0;" x1="35.5" x2="741" y1="578.5547" y2="578.5547"></line><text fill="#000000" font-family="sans-serif" font-size="13" lengthAdjust="spacing" textLength="36" x="42.5" y="573.4888">Order</text><polygon fill="#181818" points="857,603.6875,867,607.6875,857,611.6875,861,607.6875" style="stroke:#181818;stroke-width:1.0;"></polygon><line style="stroke:#181818;stroke-width:1.0;" x1="35.5" x2="863" y1="607.6875" y2="607.6875"></line><text fill="#000000" font-family="sans-serif" font-size="13" lengthAdjust="spacing" textLength="23" x="42.5" y="602.6216">Pay</text><polygon fill="#181818" points="292.5,632.8203,302.5,636.8203,292.5,640.8203,296.5,636.8203" style="stroke:#181818;stroke-width:1.0;"></polygon><line style="stroke:#181818;stroke-width:1.0;" x1="35.5" x2="298.5" y1="636.8203" y2="636.8203"></line><text fill="#000000" font-family="sans-serif" font-size="13" lengthAdjust="spacing" textLength="109" x="42.5" y="631.7544">RequestPayment</text><polygon fill="#181818" points="46.5,661.9531,36.5,665.9531,46.5,669.9531,42.5,665.9531" style="stroke:#181818;stroke-width:1.0;"></polygon><line style="stroke:#181818;stroke-width:1.0;" x1="40.5" x2="303.5" y1="665.9531" y2="665.9531"></line><text fill="#000000" font-family="sans-serif" font-size="13" lengthAdjust="spacing" textLength="82" x="52.5" y="660.8872">PaymentLink</text><polygon fill="#181818" points="292.5,691.0859,302.5,695.0859,292.5,699.0859,296.5,695.0859" style="stroke:#181818;stroke-width:1.0;"></polygon><line style="stroke:#181818;stroke-width:1.0;" x1="35.5" x2="298.5" y1="695.0859" y2="695.0859"></line><text fill="#000000" font-family="sans-serif" font-size="13" lengthAdjust="spacing" textLength="135" x="42.5" y="690.02">EnterPaymentDetails</text><polygon fill="#181818" points="46.5,720.2188,36.5,724.2188,46.5,728.2188,42.5,724.2188" style="stroke:#181818;stroke-width:1.0;"></polygon><line style="stroke:#181818;stroke-width:1.0;" x1="40.5" x2="303.5" y1="724.2188" y2="724.2188"></line><text fill="#000000" font-family="sans-serif" font-size="13" lengthAdjust="spacing" textLength="96" x="52.5" y="719.1528">PaymentResult</text><polygon fill="#181818" points="373,749.3516,383,753.3516,373,757.3516,377,753.3516" style="stroke:#181818;stroke-width:1.0;"></polygon><line style="stroke:#181818;stroke-width:1.0;" x1="167.5" x2="379" y1="753.3516" y2="753.3516"></line><text fill="#000000" font-family="sans-serif" font-size="13" lengthAdjust="spacing" textLength="119" x="174.5" y="748.2856">CreatePublicProfile</text><polygon fill="#181818" points="178.5,778.4844,168.5,782.4844,178.5,786.4844,174.5,782.4844" style="stroke:#181818;stroke-width:1.0;"></polygon><line style="stroke:#181818;stroke-width:1.0;" x1="172.5" x2="384" y1="782.4844" y2="782.4844"></line><text fill="#000000" font-family="sans-serif" font-size="13" lengthAdjust="spacing" textLength="67" x="184.5" y="777.4185">GetDetails</text><polygon fill="#181818" points="373,807.6172,383,811.6172,373,815.6172,377,811.6172" style="stroke:#181818;stroke-width:1.0;"></polygon><line style="stroke:#181818;stroke-width:1.0;" x1="167.5" x2="379" y1="811.6172" y2="811.6172"></line><text fill="#000000" font-family="sans-serif" font-size="13" lengthAdjust="spacing" textLength="88" x="174.5" y="806.5513">ChangeName</text><polygon fill="#181818" points="373,836.75,383,840.75,373,844.75,377,840.75" style="stroke:#181818;stroke-width:1.0;"></polygon><line style="stroke:#181818;stroke-width:1.0;" x1="167.5" x2="379" y1="840.75" y2="840.75"></line><text fill="#000000" font-family="sans-serif" font-size="13" lengthAdjust="spacing" textLength="84" x="174.5" y="835.6841">ChangeEmail</text><polygon fill="#181818" points="373,865.8828,383,869.8828,373,873.8828,377,869.8828" style="stroke:#181818;stroke-width:1.0;"></polygon><line style="stroke:#181818;stroke-width:1.0;" x1="167.5" x2="379" y1="869.8828" y2="869.8828"></line><text fill="#000000" font-family="sans-serif" font-size="13" lengthAdjust="spacing" textLength="90" x="174.5" y="864.8169">ChangeMobile</text><polygon fill="#181818" points="373,895.0156,383,899.0156,373,903.0156,377,899.0156" style="stroke:#181818;stroke-width:1.0;"></polygon><line style="stroke:#181818;stroke-width:1.0;" x1="167.5" x2="379" y1="899.0156" y2="899.0156"></line><text fill="#000000" font-family="sans-serif" font-size="13" lengthAdjust="spacing" textLength="109" x="174.5" y="893.9497">ChangePassword</text><polygon fill="#181818" points="373,924.1484,383,928.1484,373,932.1484,377,928.1484" style="stroke:#181818;stroke-width:1.0;"></polygon><line style="stroke:#181818;stroke-width:1.0;" x1="167.5" x2="379" y1="928.1484" y2="928.1484"></line><text fill="#000000" font-family="sans-serif" font-size="13" lengthAdjust="spacing" textLength="116" x="174.5" y="923.0825">ChangeUsername</text><polygon fill="#181818" points="373,953.2813,383,957.2813,373,961.2813,377,957.2813" style="stroke:#181818;stroke-width:1.0;"></polygon><line style="stroke:#181818;stroke-width:1.0;" x1="167.5" x2="379" y1="957.2813" y2="957.2813"></line><text fill="#000000" font-family="sans-serif" font-size="13" lengthAdjust="spacing" textLength="34" x="174.5" y="952.2153">Login</text><polygon fill="#181818" points="178.5,982.4141,168.5,986.4141,178.5,990.4141,174.5,986.4141" style="stroke:#181818;stroke-width:1.0;"></polygon><line style="stroke:#181818;stroke-width:1.0;stroke-dasharray:2.0,2.0;" x1="172.5" x2="384" y1="986.4141" y2="986.4141"></line><text fill="#000000" font-family="sans-serif" font-size="13" lengthAdjust="spacing" textLength="102" x="184.5" y="981.3481">AccountSession</text><line style="stroke:#181818;stroke-width:1.0;" x1="167.5" x2="209.5" y1="1015.5469" y2="1015.5469"></line><line style="stroke:#181818;stroke-width:1.0;" x1="209.5" x2="209.5" y1="1015.5469" y2="1028.5469"></line><line style="stroke:#181818;stroke-width:1.0;" x1="168.5" x2="209.5" y1="1028.5469" y2="1028.5469"></line><polygon fill="#181818" points="178.5,1024.5469,168.5,1028.5469,178.5,1032.5469,174.5,1028.5469" style="stroke:#181818;stroke-width:1.0;"></polygon><text fill="#000000" font-family="sans-serif" font-size="13" lengthAdjust="spacing" textLength="123" x="174.5" y="1010.481">FillPublicProfileData</text><polygon fill="#181818" points="964.5,1053.6797,974.5,1057.6797,964.5,1061.6797,968.5,1057.6797" style="stroke:#181818;stroke-width:1.0;"></polygon><line style="stroke:#181818;stroke-width:1.0;" x1="100.5" x2="970.5" y1="1057.6797" y2="1057.6797"></line><text fill="#000000" font-family="sans-serif" font-size="13" lengthAdjust="spacing" textLength="43" x="107.5" y="1052.6138">Create</text><polygon fill="#181818" points="516.5,1082.8125,526.5,1086.8125,516.5,1090.8125,520.5,1086.8125" style="stroke:#181818;stroke-width:1.0;"></polygon><line style="stroke:#181818;stroke-width:1.0;" x1="100.5" x2="522.5" y1="1086.8125" y2="1086.8125"></line><text fill="#000000" font-family="sans-serif" font-size="13" lengthAdjust="spacing" textLength="43" x="107.5" y="1081.7466">Create</text><polygon fill="#181818" points="155.5,1111.9453,165.5,1115.9453,155.5,1119.9453,159.5,1115.9453" style="stroke:#181818;stroke-width:1.0;"></polygon><line style="stroke:#181818;stroke-width:1.0;" x1="100.5" x2="161.5" y1="1115.9453" y2="1115.9453"></line><text fill="#000000" font-family="sans-serif" font-size="13" lengthAdjust="spacing" textLength="43" x="107.5" y="1110.8794">Create</text><!--SRC=[VP9DSeCm38NtFeKlq0imqyumITfDqZ0XxLunQk82DlLFExrz2IZ6fC0AM-z9biG7mcd3S-SBL8v1TqkBMYew7n741GtTyWiqOA1aZ3BumnDFXT1UkOJdygnym-X-bSYLy1TqQtGWApkPkRg0EkChrBWWR-esVq7VwPEibWfaOEsFDiM2vSsYKNDjRFMvtKiOBvwFWZbQAxMAiuzGearkJbfH5xogA-sDnVPrW-1mY7U_8E47_F9eNTeqHdz3nRfmLBKNGbxSKUx0USiVUPfbX_txPXqtrJzBtGwlz_zwmh03KwREeIf0YT5ojbw9ozuKQ1BUVMAHZXdyrbrFxM4a4qrXJZAocp12YCIjLELqaOroQCWLO5keT43hAyVYiGSQkera_bH9aHdzSGKhuffIHbnFbXcudfTxhkTrudhU4BYUjmIkfop_kGxptN4TPGVBiwogqQBMu80DgER-z8aYx7GGxjWVsBvLxeK_]--></g></svg>